<svg xmlns="http://www.w3.org/2000/svg" width="410" height="218.191" viewBox="0 0 410 218.191">
  <g id="Grupo_1" data-name="Grupo 1" transform="translate(-0.011 -0.035)">
    <path id="Caminho_1" data-name="Caminho 1" d="M457.927,345.475q-.685,1.477-1.366,2.914-1.063,2.232-2.1,4.378c-.307.634-.614,1.256-.913,1.878-3.386,6.918-6.548,13.037-9.233,18.069a28.826,28.826,0,0,1-25.125,15.238l-59.712.65h-.63l-5.119.055-4.378.047-13.427.146h-.543l-6.835.075h-.209l-42.131.457-37.607.394-4.375.047-27.169.3h-.032l-17.62.189h-.189l-55.715.6-16.667.181a34.646,34.646,0,0,1-4.249-.213h0c-.48-.055-.961-.118-1.437-.193a34.406,34.406,0,0,1-20.2-10.844A78.57,78.57,0,0,1,85.06,352.767q-.76-2.162-1.418-4.378C71.511,307.38,86.3,254.472,112.917,219.066q1.673-2.221,3.4-4.331l.028-.032c8.186-10.048,17.364-18.443,27.141-24.412,17.325-10.6,36.52-13.58,55.4-4.686a123.927,123.927,0,0,0,45.348,12.029c1.461.094,2.922.165,4.375.209,33.165,1.043,64.248-10.907,100.748-18.62,1.453-.307,2.91-.61,4.378-.9,26.039-5.182,54.924-7.914,89.274-2.17a74.453,74.453,0,0,1,10.537,2.52q2.272.732,4.378,1.575c16.4,6.67,25.338,18.994,29.137,34.437q.539,2.15.933,4.375C494.734,256.209,475,308.9,457.927,345.475Z" transform="translate(-79.34 -172.91)" fill="#f2f2f2"/>
    <path id="Caminho_2" data-name="Caminho 2" d="M281.618,356.607a37.47,37.47,0,0,1-.736,4.377h36.888v-4.377Zm-30.806,24.724,4.374-.035V370.482c-1.5-.067-2.96-.134-4.374-.2Zm-91.7-24.724v4.377h78.147v-4.377ZM493.622,222.96H464.489V188.521q-2.106-.854-4.378-1.575V222.96H360.3V186.58c-1.468.287-2.925.59-4.378.9V222.96H255.186V206.092c-1.453-.043-2.913-.114-4.374-.209V222.96H150.08V198.554c-9.775,5.967-18.952,14.36-27.137,24.405h-.028v.031q-1.732,2.126-3.4,4.33h3.4V356.607H90.24q.654,2.216,1.417,4.377h31.255v36.852a34.256,34.256,0,0,0,4.8,1.1c.476.075.957.138,1.437.193h0a34.641,34.641,0,0,0,4.248.213l16.665-.181V360.976H250.812V398.06l4.374-.047V360.984H355.919v35.962l4.378-.047V360.984h99.8v1.878c.3-.622.606-1.244.913-1.878q1.035-2.145,2.1-4.377.681-1.433,1.366-2.913V227.337h30.085Q494.157,225.1,493.622,222.96ZM150.08,356.607V227.321H250.812V356.607Zm105.114,0V227.321H355.919V356.607Zm204.905,0H360.3V227.321h99.8Z" transform="translate(-85.893 -181.116)" opacity="0.1"/>
    <path id="Caminho_3" data-name="Caminho 3" d="M407.527,516.5v5.177l-60.494.557-.645.012-22.992.211-.55.008-6.988.06h-.207l-42.6.394-69.928.649h-.06l-17.78.167-.191,0-79,.725V518.49l18.576-11.15,37.271-.311.8,0,.263,0,.8-.012,17.9-.147.8,0,.255,0,.8,0,5.738-.048.151,0,14.156-.12h.115l110.46-.932,2.7-.02h.271l2.063-.02,14.992-.123.8-.012.737-.008h.382l4.663-.036.924-.012,1.238-.008,3.882-.036,6.16-.052.8-.008,1.386-.008h.259l29.749-.255Z" transform="translate(-63.839 -306.446)" fill="#65617d"/>
    <path id="Caminho_4" data-name="Caminho 4" d="M407.527,516.5v5.177l-60.494.557-.645.012-22.992.211-.55.008-6.988.06h-.207l-42.6.394-69.928.649h-.06l-17.78.167-.191,0-79,.725V518.49l18.576-11.15,37.271-.311.8,0,.263,0,.8-.012,17.9-.147.8,0,.255,0,.8,0,5.738-.048.151,0,14.156-.12h.115l110.46-.932,2.7-.02h.271l2.063-.02,14.992-.123.8-.012.737-.008h.382l4.663-.036.924-.012,1.238-.008,3.882-.036,6.16-.052.8-.008,1.386-.008h.259l29.749-.255Z" transform="translate(-63.839 -306.446)" opacity="0.2"/>
    <path id="Caminho_5" data-name="Caminho 5" d="M347.053,656.57v9.752a2.441,2.441,0,0,1-1.394,2.206,2.389,2.389,0,0,1-1,.239l-13.9.295a2.39,2.39,0,0,1-1.075-.227,2.437,2.437,0,0,1-1.422-2.218V656.57Z" transform="translate(-230.301 -466.423)" fill="#3f3d56"/>
    <path id="Caminho_6" data-name="Caminho 6" d="M347.053,656.57v9.752a2.441,2.441,0,0,1-1.394,2.206,2.389,2.389,0,0,1-1,.239l-13.9.295a2.39,2.39,0,0,1-1.075-.227,2.437,2.437,0,0,1-1.422-2.218V656.57Z" transform="translate(-230.301 -466.423)" opacity="0.1"/>
    <path id="Caminho_7" data-name="Caminho 7" d="M349.053,656.57v9.752a2.441,2.441,0,0,1-1.394,2.206,2.389,2.389,0,0,1-1,.239l-13.9.295a2.39,2.39,0,0,1-1.075-.227,2.437,2.437,0,0,1-1.422-2.218V656.57Z" transform="translate(-231.513 -466.423)" fill="#3f3d56"/>
    <rect id="Retângulo_4" data-name="Retângulo 4" width="18.783" height="12.543" transform="translate(267.973 190.143)" fill="#3f3d56"/>
    <rect id="Retângulo_5" data-name="Retângulo 5" width="18.783" height="12.543" transform="translate(267.973 190.143)" opacity="0.1"/>
    <rect id="Retângulo_6" data-name="Retângulo 6" width="18.783" height="12.543" transform="translate(267.186 190.143)" fill="#3f3d56"/>
    <path id="Caminho_8" data-name="Caminho 8" d="M269.7,483.65v1.979l-18.783.5V483.65Z" transform="translate(-152.167 -293.507)" opacity="0.1"/>
    <path id="Caminho_9" data-name="Caminho 9" d="M340.631,482.893V549.87a1.593,1.593,0,0,1-1.533,1.573l-76.315,2.031h-.02a1.593,1.593,0,0,1-1.573-1.573V482.893a1.593,1.593,0,0,1,1.573-1.573h76.295a1.593,1.593,0,0,1,1.573,1.573Z" transform="translate(-189.772 -360.957)" fill="#65617d"/>
    <path id="Caminho_10" data-name="Caminho 10" d="M262.783,481.32v72.154h-.02a1.593,1.593,0,0,1-1.573-1.573V482.893a1.593,1.593,0,0,1,1.573-1.573Z" transform="translate(-188.771 -360.957)" opacity="0.1"/>
    <path id="Caminho_11" data-name="Caminho 11" d="M194.59,319.15h70.68v59.033l-70.68,1.593Z" transform="translate(-118.142 -194.511)" fill="#6c63ff"/>
    <path id="Caminho_12" data-name="Caminho 12" d="M697.7,483.65V486.2l-18.783-.5V483.65Z" transform="translate(-411.734 -293.507)" opacity="0.1"/>
    <path id="Caminho_13" data-name="Caminho 13" d="M747.607,482.893V551.9a1.593,1.593,0,0,1-1.593,1.573h0l-76.331-2.031a1.593,1.593,0,0,1-1.533-1.573V482.893a1.593,1.593,0,0,1,1.573-1.573h76.295a1.593,1.593,0,0,1,1.589,1.573Z" transform="translate(-436.923 -360.957)" fill="#65617d"/>
    <path id="Caminho_14" data-name="Caminho 14" d="M865.283,482.893V551.9a1.593,1.593,0,0,1-1.593,1.573h0V481.32h0a1.593,1.593,0,0,1,1.593,1.573Z" transform="translate(-554.861 -360.957)" opacity="0.1"/>
    <path id="Caminho_15" data-name="Caminho 15" d="M668.77,319.15H598.09v59.033l70.68,1.593Z" transform="translate(-363.134 -194.511)" fill="#6c63ff"/>
    <path id="Caminho_16" data-name="Caminho 16" d="M543.131,482.893V549.87a1.593,1.593,0,0,1-1.533,1.573l-76.315,2.031h0a1.593,1.593,0,0,1-1.593-1.573V482.893a1.593,1.593,0,0,1,1.573-1.573h76.295A1.593,1.593,0,0,1,543.131,482.893Z" transform="translate(-312.752 -360.957)" fill="#65617d"/>
    <path id="Caminho_17" data-name="Caminho 17" d="M397.09,319.15h70.68v59.033l-70.68,1.593Z" transform="translate(-241.094 -194.511)" fill="#6c63ff"/>
    <path id="Caminho_18" data-name="Caminho 18" d="M407.527,533.65v5.177l-60.494.557-.645.012-22.992.211-.55.008-6.988.06h-.207l-42.6.394-69.928.649h-.06l-17.78.167-.191,0-79,.725v-5.973l80.639-.53h.191L203.243,535h.076l112.722-.745h.115l.068,0h.187l1.907-.012h.581l29.662-.2,1.752-.008.39,0Z" transform="translate(-63.839 -323.597)" opacity="0.1"/>
    <circle id="Elipse_1" data-name="Elipse 1" cx="20.44" cy="20.44" r="20.44" transform="translate(171.441 96.956)" fill="#fbbebe"/>
    <path id="Caminho_19" data-name="Caminho 19" d="M563.393,483.855s-39.621,4.778-35.838,0c1.37-1.728,1.748-6.849,1.672-12.683-.024-1.772-.088-3.608-.179-5.435-.438-8.76-1.493-17.322-1.493-17.322s34.643-16.326,30.661-3.385c-1.593,5.228-1.071,12.571.139,19.464.354,2.011.765,3.982,1.195,5.854a137.258,137.258,0,0,0,3.843,13.507Z" transform="translate(-351.101 -335.151)" fill="#fbbebe"/>
    <path id="Caminho_20" data-name="Caminho 20" d="M499.828,541.777c4.583-.848,9.437-2.389,13.75-.613,1.135.466,2.178,1.147,3.341,1.537s2.437.486,3.648.76c4.253.964,7.7,4.2,9.915,7.964s3.361,8.02,4.484,12.233l2.748,10.286c2.389,8.94,4.778,17.955,5.332,27.2a970.608,970.608,0,0,1-99.884.57c2.166-4.117,4.38-8.486,4.2-13.141s-2.863-9.246-1.9-13.833c.617-2.923,2.616-5.332,3.839-8.052,3.484-7.773.773-18.234,6.9-24.151,2.756-2.66,6.769-3.667,10.6-3.54,4.89.163,9.9,1.688,14.733,2.433C487.731,542.367,493.584,542.924,499.828,541.777Z" transform="translate(-300.414 -395.659)" fill="#ff6584"/>
    <path id="Caminho_21" data-name="Caminho 21" d="M543.412,650.166l-.04.569v.04l-.068.916-.53,7.371-.641,8.88-.183,2.5-.4,5.352v.068l-42.607.4-69.92.757v.335h-.056v-.446l.179-5.718.342-11.173.295-9.473.028-.944a4.193,4.193,0,0,1,4.547-4.05c1.88.159,4.32.354,7.239.561l1.195.088c16.856,1.171,48.007,2.684,79.441.8.661-.036,1.326-.076,1.991-.123,4.874-.307,9.744-.7,14.566-1.195a4.193,4.193,0,0,1,4.619,4.472Z" transform="translate(-291.891 -459.78)" opacity="0.1"/>
    <path id="Caminho_22" data-name="Caminho 22" d="M429.08,679.777v-.334l69.932-.761,42.607-.4h.12v-.068l.4-5.352.171-2.389.653-9,.514-7.128v-.175a4.231,4.231,0,0,0-.044-.984.118.118,0,0,0,0-.04,4.138,4.138,0,0,0-.8-1.848,4.2,4.2,0,0,0-3.751-1.593c-4.822.494-9.692.888-14.566,1.195-.665.048-1.33.088-1.991.123-31.434,1.868-62.585.354-79.441-.8l-1.195-.088c-2.919-.207-5.36-.4-7.239-.561a4.2,4.2,0,0,0-4.476,3.4,4.377,4.377,0,0,0-.072.653l-.271,8.824-.37,11.177-.175,5.718v.446Z" transform="translate(-291.958 -462.206)" fill="#3f3d56"/>
    <path id="Caminho_23" data-name="Caminho 23" d="M543.616,659.907l-.49,6.1-.729,9.1-.183,2.278-.4,5.1-.024.255v.068h0l-.06.589.044-.589h-.115l-42.607.4-69.944.757v-.112l.2-5.718.4-11.173.255-7.426a2.533,2.533,0,0,1,1.219-2.091,2.489,2.489,0,0,1,1.505-.358c.836.068,1.864.147,3.062.235,1.947.143,4.348.311,7.144.486,5.177.327,11.671.677,19.114.964,20.706.8,48.66,1.063,75.212-1.262,1.195-.1,2.429-.219,3.636-.335a2.493,2.493,0,0,1,1.386.263,2.052,2.052,0,0,1,.343.215,2.445,2.445,0,0,1,.8.98,1.423,1.423,0,0,1,.1.243A2.5,2.5,0,0,1,543.616,659.907Z" transform="translate(-291.977 -466.729)" opacity="0.1"/>
    <path id="Caminho_24" data-name="Caminho 24" d="M349.053,677.87v1.27a2.441,2.441,0,0,1-1.394,2.206l-15.968.307a2.437,2.437,0,0,1-1.422-2.218V678.24Z" transform="translate(-231.513 -479.241)" opacity="0.1"/>
    <path id="Caminho_25" data-name="Caminho 25" d="M267.146,510.352l-20.806.4V507.3l20.806-.4Z" transform="translate(-149.396 -307.499)" fill="#3f3d56"/>
    <path id="Caminho_26" data-name="Caminho 26" d="M267.146,510.352l-20.806.4V507.3l20.806-.4Z" transform="translate(-149.396 -307.499)" opacity="0.1"/>
    <path id="Caminho_27" data-name="Caminho 27" d="M269.146,510.352l-20.806.4V507.3l20.806-.4Z" transform="translate(-150.609 -307.499)" fill="#3f3d56"/>
    <path id="Caminho_28" data-name="Caminho 28" d="M758.56,679.87v1.27a2.441,2.441,0,0,0,1.394,2.206l15.968.307a2.437,2.437,0,0,0,1.422-2.218V680.24Z" transform="translate(-491.256 -480.445)" opacity="0.1"/>
    <path id="Caminho_29" data-name="Caminho 29" d="M678.72,512.352l20.806.4V509.3l-20.806-.4Z" transform="translate(-411.629 -308.702)" opacity="0.1"/>
    <path id="Caminho_30" data-name="Caminho 30" d="M676.72,512.352l20.806.4V509.3l-20.806-.4Z" transform="translate(-410.416 -308.702)" fill="#3f3d56"/>
    <path id="Caminho_31" data-name="Caminho 31" d="M511.96,434.578c.032,2.787-1.258,5.415-2.353,7.992a65.1,65.1,0,0,0-5.041,29.749c.291,4.38,1.027,8.76.291,13.1s-3.357,8.669-7.566,9.915a21.416,21.416,0,0,0,23-1.059c3.5-2.548,6.108-6.1,8.661-9.6a38.968,38.968,0,0,1-5.3,17.819,41.186,41.186,0,0,0,29.272-16.255,21.323,21.323,0,0,0,3.87-7.657c1.23-5.177-.486-10.556-1.8-15.729a105.948,105.948,0,0,1-2.457-13.141,11.691,11.691,0,0,1,.04-4.261,20.432,20.432,0,0,1,2.246-4.468c2.23-4.2,2.282-9.278,1.139-13.889s-3.381-8.864-5.6-13.065c-1.776-3.369-3.7-6.893-6.953-8.872a21.153,21.153,0,0,0-6.722-2.246l-10.1-2.162a18.663,18.663,0,0,0-6.718-.6c-3.771.589-6.427,3.313-8.76,6.108-1.828,2.174-6.3,6.256-6.61,9.1-.287,2.624,2.031,7.02,2.425,9.788.518,3.584.884,2.389,2.907,4.587A7.072,7.072,0,0,1,511.96,434.578Z" transform="translate(-333.031 -312.038)" fill="#3f3d56"/>
    <path id="Caminho_32" data-name="Caminho 32" d="M319.36,505.9H279.7a.2.2,0,0,1,0-.4H319.36a.2.2,0,0,1,0,.4Z" transform="translate(-200.776 -374.525)" fill="#f2f2f2"/>
    <path id="Caminho_33" data-name="Caminho 33" d="M319.36,514.9H279.7a.2.2,0,1,1,0-.4H319.36a.2.2,0,0,1,0,.4Z" transform="translate(-200.776 -379.981)" fill="#f2f2f2"/>
    <path id="Caminho_34" data-name="Caminho 34" d="M319.36,523.9H279.7a.2.2,0,0,1,0-.4H319.36a.2.2,0,0,1,0,.4Z" transform="translate(-200.776 -385.438)" fill="#f2f2f2"/>
  </g>
</svg>
