<svg xmlns="http://www.w3.org/2000/svg" width="409.687" height="265.315" viewBox="0 0 409.687 265.315">
  <g id="Grupo_3" data-name="Grupo 3" transform="translate(0 0)">
    <circle id="Elipse_7" data-name="Elipse 7" cx="10.859" cy="10.859" r="10.859" transform="translate(55.696 101.828)" fill="#ffb8b8"/>
    <path id="Caminho_63" data-name="Caminho 63" d="M67.543,535.815l2.75,4.672L89.619,532.1l-4.058-6.894Z" transform="translate(-37.68 -292.999)" fill="#ffb8b8"/>
    <path id="Caminho_64" data-name="Caminho 64" d="M198.458,694.43l5.415,9.2h0a6.8,6.8,0,0,1-2.412,9.313l-.191.112L192.4,697.993Z" transform="translate(-167.771 -453.702)" fill="#2f2e41"/>
    <path id="Caminho_65" data-name="Caminho 65" d="M139.6,560.879h5.421l2.578-20.907h-8Z" transform="translate(-77.878 -301.233)" fill="#ffb8b8"/>
    <path id="Caminho_66" data-name="Caminho 66" d="M273.162,733.214h10.675a6.8,6.8,0,0,1,6.8,6.8v.221H273.162Z" transform="translate(-212.823 -475.339)" fill="#2f2e41"/>
    <path id="Caminho_67" data-name="Caminho 67" d="M217.894,628.837a1.987,1.987,0,0,1-1.6-.81l-5.228-7.1a1.99,1.99,0,0,1,.5-2.834l23.262-15.537-14.036-36.907,30.016,2.477,1.011,31.716a15.937,15.937,0,0,1-7.979,14.335L218.888,628.57A1.984,1.984,0,0,1,217.894,628.837Z" transform="translate(-177.965 -381.859)" fill="#2f2e41"/>
    <path id="Caminho_68" data-name="Caminho 68" d="M272.767,685.306a1.989,1.989,0,0,1-1.985-1.919l-1.1-30.9,13.621-.718-1.085,31.119a1.984,1.984,0,0,1-1.857,1.916l-7.46.494C272.857,685.3,272.812,685.306,272.767,685.306Z" transform="translate(-210.882 -429.905)" fill="#2f2e41"/>
    <path id="Caminho_69" data-name="Caminho 69" d="M264.023,501.825c-3.466,0-15.57-3.9-19.773-5.287-.629.5-4.082,3.085-8.114,2.613a9.455,9.455,0,0,1-6.509-4.185c-4.044-5.489.951-29.026,5.853-47.806a15.151,15.151,0,0,1,17.919-11h0a15.285,15.285,0,0,1,11.534,11.22c.923,3.757.129,8.177-.451,11.4a15.5,15.5,0,0,0-.414,3.3c.285,2.276,1.865,37.975.849,39.5C264.81,501.752,264.5,501.825,264.023,501.825Z" transform="translate(-187.71 -309.423)" fill="#6c63ff"/>
    <path id="Caminho_70" data-name="Caminho 70" d="M268.556,521.513a4.75,4.75,0,0,0,.416-7.271l.215-43.26L259,472.679l2.993,41.989a4.775,4.775,0,0,0,6.565,6.845Z" transform="translate(-204.922 -329.048)" fill="#ffb8b8"/>
    <path id="Caminho_71" data-name="Caminho 71" d="M269.248,483.982H258.274a2,2,0,0,1-1.99-1.971l-.269-29.752a7.783,7.783,0,1,1,15.565.019l-.342,29.738A2,2,0,0,1,269.248,483.982Z" transform="translate(-203.257 -314.266)" fill="#6c63ff"/>
    <path id="Caminho_72" data-name="Caminho 72" d="M267.488,396.922a11.018,11.018,0,0,1-10.524-8.817,12.677,12.677,0,0,1,.406-5.754,15.454,15.454,0,0,1,21.194-9.706,6.191,6.191,0,0,1,3.249,2.793,2.884,2.884,0,0,1-1.1,3.778c-.871.39-1.963.2-2.736.759-1.109.8-.824,2.516-.328,3.794s1.056,2.824.225,3.914c-.774,1.016-2.321.984-3.539.6s-2.421-1.023-3.691-.892c-1.853.19-3.184,2.033-3.431,3.879a12.618,12.618,0,0,0,.906,5.463Z" transform="translate(-203.698 -273.421)" fill="#2f2e41"/>
    <path id="Caminho_73" data-name="Caminho 73" d="M251.2,748.926H137.131a.442.442,0,1,1,0-.884H251.2a.442.442,0,1,1,0,.884Z" transform="translate(-136.689 -483.611)" fill="#ccc"/>
    <path id="Caminho_74" data-name="Caminho 74" d="M680.1,348.112H396.767a7.3,7.3,0,0,1-7.3-7.3V166.108a5.351,5.351,0,0,1,5.344-5.345H681.959A5.443,5.443,0,0,1,687.4,166.2V340.817A7.3,7.3,0,0,1,680.1,348.112Z" transform="translate(-277.709 -155.986)" fill="#f2f2f2"/>
    <path id="Caminho_75" data-name="Caminho 75" d="M684.048,357.261H419.988a6.816,6.816,0,0,1-7.02-6.574V198.548a5.052,5.052,0,0,1,5.2-4.875H685.781a5.136,5.136,0,0,1,5.288,4.956V350.688A6.816,6.816,0,0,1,684.048,357.261Z" transform="translate(-290.817 -174.345)" fill="#fff"/>
    <path id="Caminho_76" data-name="Caminho 76" d="M687.165,160.989H389.241v-3.714a7.328,7.328,0,0,1,7.322-7.317H679.844a7.328,7.328,0,0,1,7.322,7.317Z" transform="translate(-277.58 -149.958)" fill="#3f3d56"/>
    <circle id="Elipse_8" data-name="Elipse 8" cx="1.894" cy="1.894" r="1.894" transform="translate(123.073 3.633)" fill="#fff"/>
    <circle id="Elipse_9" data-name="Elipse 9" cx="1.894" cy="1.894" r="1.894" transform="translate(130.261 3.633)" fill="#fff"/>
    <circle id="Elipse_10" data-name="Elipse 10" cx="1.894" cy="1.894" r="1.894" transform="translate(137.45 3.633)" fill="#fff"/>
    <path id="Caminho_77" data-name="Caminho 77" d="M644.473,261.586H592.829a2.9,2.9,0,0,1,0-5.806h51.644a2.9,2.9,0,0,1,0,5.806Z" transform="translate(-389.536 -208.992)" fill="#ccc"/>
    <path id="Caminho_78" data-name="Caminho 78" d="M789.619,261.586H737.975a2.9,2.9,0,1,1,0-5.806h51.644a2.9,2.9,0,1,1,0,5.806Z" transform="translate(-470.509 -208.992)" fill="#ccc"/>
    <path id="Caminho_79" data-name="Caminho 79" d="M741.421,286.468H651.578a2.9,2.9,0,0,1,0-5.806h89.843a2.9,2.9,0,1,1,0,5.806Z" transform="translate(-422.311 -222.873)" fill="#ccc"/>
    <path id="Caminho_80" data-name="Caminho 80" d="M644.473,236.358H592.829a2.9,2.9,0,0,1,0-5.806h51.644a2.9,2.9,0,0,1,0,5.806Z" transform="translate(-389.536 -194.918)" fill="#ccc"/>
    <path id="Caminho_81" data-name="Caminho 81" d="M755.407,236.7H740.739a2.9,2.9,0,0,1,0-5.806h14.669a2.9,2.9,0,0,1,0,5.806Z" transform="translate(-472.051 -195.111)" fill="#ccc"/>
    <path id="Caminho_82" data-name="Caminho 82" d="M607.5,286.468H592.829a2.9,2.9,0,0,1,0-5.806H607.5a2.9,2.9,0,0,1,0,5.806Z" transform="translate(-389.536 -222.873)" fill="#ccc"/>
    <path id="Caminho_83" data-name="Caminho 83" d="M644.473,494.586H592.829a2.9,2.9,0,0,1,0-5.806h51.644a2.9,2.9,0,0,1,0,5.806Z" transform="translate(-389.536 -338.976)" fill="#ccc"/>
    <path id="Caminho_84" data-name="Caminho 84" d="M789.619,494.586H737.975a2.9,2.9,0,1,1,0-5.806h51.644a2.9,2.9,0,1,1,0,5.806Z" transform="translate(-470.509 -338.976)" fill="#ccc"/>
    <path id="Caminho_85" data-name="Caminho 85" d="M741.421,519.468H651.578a2.9,2.9,0,1,1,0-5.806h89.843a2.9,2.9,0,0,1,0,5.806Z" transform="translate(-422.311 -352.857)" fill="#ccc"/>
    <path id="Caminho_86" data-name="Caminho 86" d="M644.473,469.358H592.829a2.9,2.9,0,0,1,0-5.806h51.644a2.9,2.9,0,0,1,0,5.806Z" transform="translate(-389.536 -324.902)" fill="#ccc"/>
    <path id="Caminho_87" data-name="Caminho 87" d="M755.407,469.7H740.739a2.9,2.9,0,0,1,0-5.806h14.669a2.9,2.9,0,0,1,0,5.806Z" transform="translate(-472.051 -325.095)" fill="#ccc"/>
    <path id="Caminho_88" data-name="Caminho 88" d="M607.5,519.468H592.829a2.9,2.9,0,0,1,0-5.806H607.5a2.9,2.9,0,0,1,0,5.806Z" transform="translate(-389.536 -352.857)" fill="#ccc"/>
    <path id="Caminho_89" data-name="Caminho 89" d="M653.085,372.81a4.155,4.155,0,0,1-2.929-1.2l-19.413-19.17a4.046,4.046,0,0,1,0-5.758l19.335-19.093a4.289,4.289,0,0,1,6.032.019h0a4.284,4.284,0,0,1,0,6.051l-14.368,14.368a2.393,2.393,0,0,0,0,3.381l14.29,14.29a4.164,4.164,0,0,1-2.947,7.111Z" transform="translate(-411.636 -248.367)" fill="#6c63ff"/>
    <path id="Caminho_90" data-name="Caminho 90" d="M747.36,372.81a4.164,4.164,0,0,1-2.947-7.111l14.289-14.29a2.394,2.394,0,0,0,0-3.381l-14.367-14.368a4.279,4.279,0,0,1,0-6.051h0a4.289,4.289,0,0,1,6.032-.019L769.7,346.683a4.046,4.046,0,0,1,0,5.758l-19.413,19.17A4.156,4.156,0,0,1,747.36,372.81Z" transform="translate(-474.977 -248.367)" fill="#6c63ff"/>
  </g>
</svg>
