<svg xmlns="http://www.w3.org/2000/svg" width="410" height="221.249" viewBox="0 0 410 221.249">
  <g id="Grupo_2" data-name="Grupo 2" transform="translate(0 -0.04)">
    <path id="Caminho_35" data-name="Caminho 35" d="M438,283.374a65.2,65.2,0,0,1-2.455,17.777,64.535,64.535,0,0,1-6.906,15.87c0,17.956-12.121,33.475-29.714,40.858a59.957,59.957,0,0,1-23.2,4.587H105.832a74.89,74.89,0,0,1-38.756-10.523,66.577,66.577,0,0,1-8.9-6.412c-12.185-10.472-19.74-24.945-19.74-40.929A64.883,64.883,0,0,1,65.828,210.34a62.543,62.543,0,0,1,9.143-3.269q1.659-.452,3.355-.81a62.854,62.854,0,0,1,9.143-1.254q1.667-.1,3.351-.118h.616c1.24,0,2.469.043,3.691.115l.4-.681q.738-1.233,1.512-2.441,1.4-2.2,2.932-4.337,1.606-2.254,3.351-4.437l.3-.358q.989-1.233,2.021-2.437,3.226-3.76,6.809-7.293c25.844-25.332,66.331-41.639,111.847-41.639,35.416,0,67.79,9.874,92.587,26.188a62.423,62.423,0,0,1,30.8-8.1c35.029,0,63.435,28.8,63.435,64.336a66.272,66.272,0,0,1-.358,6.731A64.512,64.512,0,0,1,438,283.374Z" transform="translate(-28 -141.34)" fill="#6c63ff" opacity="0.1"/>
    <path id="Caminho_36" data-name="Caminho 36" d="M251.254,257.52v7.062H244.66Q247.759,260.945,251.254,257.52Z" transform="translate(-166.97 -215.811)" fill="#6c63ff" opacity="0.2"/>
    <rect id="Retângulo_7" data-name="Retângulo 7" width="8.853" height="8.853" transform="translate(87.876 39.869)" fill="#6c63ff" opacity="0.2"/>
    <rect id="Retângulo_8" data-name="Retângulo 8" width="8.853" height="8.853" transform="translate(100.379 39.869)" fill="#6c63ff" opacity="0.2"/>
    <rect id="Retângulo_9" data-name="Retângulo 9" width="8.853" height="8.853" transform="translate(112.885 39.869)" fill="#6c63ff" opacity="0.2"/>
    <rect id="Retângulo_10" data-name="Retângulo 10" width="8.853" height="8.853" transform="translate(125.387 39.869)" fill="#6c63ff" opacity="0.2"/>
    <rect id="Retângulo_11" data-name="Retângulo 11" width="8.853" height="8.853" transform="translate(137.894 39.869)" fill="#6c63ff" opacity="0.2"/>
    <rect id="Retângulo_12" data-name="Retângulo 12" width="8.853" height="8.853" transform="translate(150.4 39.869)" fill="#6c63ff"/>
    <rect id="Retângulo_13" data-name="Retângulo 13" width="8.853" height="8.853" transform="translate(162.902 39.869)" fill="#6c63ff" opacity="0.2"/>
    <rect id="Retângulo_14" data-name="Retângulo 14" width="8.853" height="8.853" transform="translate(175.408 39.869)" fill="#6c63ff" opacity="0.2"/>
    <rect id="Retângulo_15" data-name="Retângulo 15" width="8.853" height="8.853" transform="translate(187.911 39.869)" fill="#6c63ff" opacity="0.2"/>
    <rect id="Retângulo_16" data-name="Retângulo 16" width="8.853" height="8.853" transform="translate(200.417 39.869)" fill="#6c63ff"/>
    <rect id="Retângulo_17" data-name="Retângulo 17" width="8.853" height="8.853" transform="translate(212.923 39.869)" fill="#6c63ff" opacity="0.2"/>
    <rect id="Retângulo_18" data-name="Retângulo 18" width="8.853" height="8.853" transform="translate(225.426 39.869)" fill="#6c63ff" opacity="0.2"/>
    <rect id="Retângulo_19" data-name="Retângulo 19" width="8.853" height="8.853" transform="translate(237.932 39.869)" fill="#6c63ff" opacity="0.2"/>
    <rect id="Retângulo_20" data-name="Retângulo 20" width="8.853" height="8.853" transform="translate(250.438 39.869)" fill="#6c63ff" opacity="0.2"/>
    <rect id="Retângulo_21" data-name="Retângulo 21" width="8.853" height="8.853" transform="translate(262.941 39.869)" fill="#6c63ff" opacity="0.2"/>
    <rect id="Retângulo_22" data-name="Retângulo 22" width="8.853" height="8.853" transform="translate(275.447 39.869)" fill="#6c63ff" opacity="0.2"/>
    <rect id="Retângulo_23" data-name="Retângulo 23" width="8.853" height="8.853" transform="translate(287.949 39.869)" fill="#6c63ff"/>
    <rect id="Retângulo_24" data-name="Retângulo 24" width="8.853" height="8.853" transform="translate(300.455 39.869)" fill="#6c63ff"/>
    <rect id="Retângulo_25" data-name="Retângulo 25" width="8.853" height="8.853" transform="translate(312.961 39.869)" fill="#6c63ff" opacity="0.2"/>
    <rect id="Retângulo_26" data-name="Retângulo 26" width="8.853" height="8.853" transform="translate(325.464 39.869)" fill="#6c63ff" opacity="0.2"/>
    <rect id="Retângulo_27" data-name="Retângulo 27" width="8.853" height="8.853" transform="translate(340.016 39.869)" fill="#6c63ff"/>
    <rect id="Retângulo_28" data-name="Retângulo 28" width="8.853" height="8.853" transform="translate(352.114 39.869)" fill="#6c63ff"/>
    <path id="Caminho_37" data-name="Caminho 37" d="M223.459,298.08v4.2H220.62Q221.973,300.134,223.459,298.08Z" transform="translate(-153.774 -241.844)" fill="#6c63ff"/>
    <rect id="Retângulo_29" data-name="Retângulo 29" width="8.853" height="8.853" transform="translate(75.37 51.464)" fill="#6c63ff" opacity="0.2"/>
    <rect id="Retângulo_30" data-name="Retângulo 30" width="8.853" height="8.853" transform="translate(87.876 51.464)" fill="#6c63ff"/>
    <rect id="Retângulo_31" data-name="Retângulo 31" width="8.853" height="8.853" transform="translate(100.379 51.464)" fill="#6c63ff" opacity="0.2"/>
    <rect id="Retângulo_32" data-name="Retângulo 32" width="8.853" height="8.853" transform="translate(112.885 51.464)" fill="#6c63ff" opacity="0.7"/>
    <rect id="Retângulo_33" data-name="Retângulo 33" width="8.853" height="8.853" transform="translate(125.387 51.464)" fill="#6c63ff" opacity="0.2"/>
    <rect id="Retângulo_34" data-name="Retângulo 34" width="8.853" height="8.853" transform="translate(137.894 51.464)" fill="#6c63ff" opacity="0.4"/>
    <rect id="Retângulo_35" data-name="Retângulo 35" width="8.853" height="8.853" transform="translate(150.4 51.464)" fill="#6c63ff"/>
    <rect id="Retângulo_36" data-name="Retângulo 36" width="8.853" height="8.853" transform="translate(162.902 51.464)" fill="#6c63ff" opacity="0.4"/>
    <rect id="Retângulo_37" data-name="Retângulo 37" width="8.853" height="8.853" transform="translate(175.408 51.464)" fill="#6c63ff" opacity="0.2"/>
    <rect id="Retângulo_38" data-name="Retângulo 38" width="8.853" height="8.853" transform="translate(187.911 51.464)" fill="#6c63ff" opacity="0.4"/>
    <rect id="Retângulo_39" data-name="Retângulo 39" width="8.853" height="8.853" transform="translate(200.417 51.464)" fill="#6c63ff"/>
    <rect id="Retângulo_40" data-name="Retângulo 40" width="8.853" height="8.853" transform="translate(212.923 51.464)" fill="#6c63ff" opacity="0.4"/>
    <rect id="Retângulo_41" data-name="Retângulo 41" width="8.853" height="8.853" transform="translate(225.426 51.464)" fill="#6c63ff" opacity="0.4"/>
    <rect id="Retângulo_42" data-name="Retângulo 42" width="8.853" height="8.853" transform="translate(237.932 51.464)" fill="#6c63ff" opacity="0.2"/>
    <rect id="Retângulo_43" data-name="Retângulo 43" width="8.853" height="8.853" transform="translate(250.438 51.464)" fill="#6c63ff" opacity="0.4"/>
    <rect id="Retângulo_44" data-name="Retângulo 44" width="8.853" height="8.853" transform="translate(262.941 51.464)" fill="#6c63ff" opacity="0.4"/>
    <rect id="Retângulo_45" data-name="Retângulo 45" width="8.853" height="8.853" transform="translate(275.447 51.464)" fill="#6c63ff" opacity="0.2"/>
    <rect id="Retângulo_46" data-name="Retângulo 46" width="8.853" height="8.853" transform="translate(287.949 51.464)" fill="#6c63ff" opacity="0.2"/>
    <rect id="Retângulo_47" data-name="Retângulo 47" width="8.853" height="8.853" transform="translate(300.455 51.464)" fill="#6c63ff" opacity="0.4"/>
    <rect id="Retângulo_48" data-name="Retângulo 48" width="8.853" height="8.853" transform="translate(312.961 51.464)" fill="#6c63ff" opacity="0.2"/>
    <rect id="Retângulo_49" data-name="Retângulo 49" width="8.853" height="8.853" transform="translate(325.464 51.464)" fill="#6c63ff"/>
    <rect id="Retângulo_50" data-name="Retângulo 50" width="8.853" height="8.853" transform="translate(340.016 51.464)" fill="#6c63ff"/>
    <rect id="Retângulo_51" data-name="Retângulo 51" width="8.853" height="8.853" transform="translate(352.114 51.464)" fill="#6c63ff"/>
    <path id="Caminho_38" data-name="Caminho 38" d="M142.4,324.67v6.188H133.55v-3.023a60.563,60.563,0,0,1,8.853-3.165Z" transform="translate(-96.921 -258.879)" fill="#6c63ff" opacity="0.2"/>
    <path id="Caminho_39" data-name="Caminho 39" d="M149.273,177.57v8.187H140.42v-6.972Z" transform="translate(-91.689 -113.825)" fill="#6c63ff" opacity="0.2"/>
    <rect id="Retângulo_52" data-name="Retângulo 52" width="8.853" height="8.853" transform="translate(60.828 63.063)" fill="#6c63ff"/>
    <rect id="Retângulo_53" data-name="Retângulo 53" width="8.853" height="8.853" transform="translate(75.37 63.063)" fill="#6c63ff" opacity="0.7"/>
    <rect id="Retângulo_54" data-name="Retângulo 54" width="8.853" height="8.853" transform="translate(87.876 63.063)" fill="#6c63ff"/>
    <rect id="Retângulo_55" data-name="Retângulo 55" width="8.853" height="8.853" transform="translate(100.379 63.063)" fill="#6c63ff" opacity="0.7"/>
    <rect id="Retângulo_56" data-name="Retângulo 56" width="8.853" height="8.853" transform="translate(112.885 63.063)" fill="#6c63ff" opacity="0.7"/>
    <rect id="Retângulo_57" data-name="Retângulo 57" width="8.853" height="8.853" transform="translate(125.387 63.063)" fill="#6c63ff" opacity="0.2"/>
    <rect id="Retângulo_58" data-name="Retângulo 58" width="8.853" height="8.853" transform="translate(137.894 63.063)" fill="#6c63ff" opacity="0.4"/>
    <rect id="Retângulo_59" data-name="Retângulo 59" width="8.853" height="8.853" transform="translate(150.4 63.063)" fill="#6c63ff" opacity="0.4"/>
    <rect id="Retângulo_60" data-name="Retângulo 60" width="8.853" height="8.853" transform="translate(162.902 63.063)" fill="#6c63ff"/>
    <rect id="Retângulo_61" data-name="Retângulo 61" width="8.853" height="8.853" transform="translate(175.408 63.063)" fill="#6c63ff" opacity="0.2"/>
    <rect id="Retângulo_62" data-name="Retângulo 62" width="8.853" height="8.853" transform="translate(187.911 63.063)" fill="#6c63ff" opacity="0.4"/>
    <rect id="Retângulo_63" data-name="Retângulo 63" width="8.853" height="8.853" transform="translate(200.417 63.063)" fill="#6c63ff"/>
    <rect id="Retângulo_64" data-name="Retângulo 64" width="8.853" height="8.853" transform="translate(212.923 63.063)" fill="#6c63ff" opacity="0.2"/>
    <rect id="Retângulo_65" data-name="Retângulo 65" width="8.853" height="8.853" transform="translate(225.426 63.063)" fill="#6c63ff" opacity="0.4"/>
    <rect id="Retângulo_66" data-name="Retângulo 66" width="8.853" height="8.853" transform="translate(237.932 63.063)" fill="#6c63ff" opacity="0.2"/>
    <rect id="Retângulo_67" data-name="Retângulo 67" width="8.853" height="8.853" transform="translate(250.438 63.063)" fill="#6c63ff"/>
    <rect id="Retângulo_68" data-name="Retângulo 68" width="8.853" height="8.853" transform="translate(262.941 63.063)" fill="#6c63ff" opacity="0.2"/>
    <rect id="Retângulo_69" data-name="Retângulo 69" width="8.853" height="8.853" transform="translate(275.447 63.063)" fill="#6c63ff" opacity="0.7"/>
    <rect id="Retângulo_70" data-name="Retângulo 70" width="8.853" height="8.853" transform="translate(287.949 63.063)" fill="#6c63ff" opacity="0.7"/>
    <rect id="Retângulo_71" data-name="Retângulo 71" width="8.853" height="8.853" transform="translate(300.455 63.063)" fill="#6c63ff" opacity="0.4"/>
    <rect id="Retângulo_72" data-name="Retângulo 72" width="8.853" height="8.853" transform="translate(312.961 63.063)" fill="#6c63ff" opacity="0.2"/>
    <rect id="Retângulo_73" data-name="Retângulo 73" width="8.853" height="8.853" transform="translate(325.464 63.063)" fill="#6c63ff"/>
    <rect id="Retângulo_74" data-name="Retângulo 74" width="8.853" height="8.853" transform="translate(340.016 63.063)" fill="#6c63ff"/>
    <rect id="Retângulo_75" data-name="Retângulo 75" width="8.853" height="8.853" transform="translate(352.114 63.063)" fill="#6c63ff"/>
    <rect id="Retângulo_76" data-name="Retângulo 76" width="8.853" height="8.853" transform="translate(36.629 74.658)" fill="#6c63ff" opacity="0.2"/>
    <rect id="Retângulo_77" data-name="Retângulo 77" width="8.853" height="8.853" transform="translate(48.731 74.658)" fill="#6c63ff" opacity="0.2"/>
    <rect id="Retângulo_78" data-name="Retângulo 78" width="8.853" height="8.853" transform="translate(60.828 74.658)" fill="#6c63ff" opacity="0.2"/>
    <rect id="Retângulo_79" data-name="Retângulo 79" width="8.853" height="8.853" transform="translate(75.37 74.658)" fill="#6c63ff" opacity="0.2"/>
    <rect id="Retângulo_80" data-name="Retângulo 80" width="8.853" height="8.853" transform="translate(87.876 74.658)" fill="#6c63ff"/>
    <rect id="Retângulo_81" data-name="Retângulo 81" width="8.853" height="8.853" transform="translate(100.379 74.658)" fill="#6c63ff" opacity="0.7"/>
    <rect id="Retângulo_82" data-name="Retângulo 82" width="8.853" height="8.853" transform="translate(112.885 74.658)" fill="#6c63ff" opacity="0.7"/>
    <rect id="Retângulo_83" data-name="Retângulo 83" width="8.853" height="8.853" transform="translate(125.387 74.658)" fill="#6c63ff" opacity="0.2"/>
    <rect id="Retângulo_84" data-name="Retângulo 84" width="8.853" height="8.853" transform="translate(137.894 74.658)" fill="#6c63ff" opacity="0.2"/>
    <rect id="Retângulo_85" data-name="Retângulo 85" width="8.853" height="8.853" transform="translate(150.4 74.658)" fill="#6c63ff" opacity="0.4"/>
    <rect id="Retângulo_86" data-name="Retângulo 86" width="8.853" height="8.853" transform="translate(162.902 74.658)" fill="#6c63ff" opacity="0.4"/>
    <rect id="Retângulo_87" data-name="Retângulo 87" width="8.853" height="8.853" transform="translate(175.408 74.658)" fill="#6c63ff"/>
    <rect id="Retângulo_88" data-name="Retângulo 88" width="8.853" height="8.853" transform="translate(187.911 74.658)" fill="#6c63ff" opacity="0.2"/>
    <rect id="Retângulo_89" data-name="Retângulo 89" width="8.853" height="8.853" transform="translate(200.417 74.658)" fill="#6c63ff" opacity="0.4"/>
    <rect id="Retângulo_90" data-name="Retângulo 90" width="8.853" height="8.853" transform="translate(212.923 74.658)" fill="#6c63ff" opacity="0.4"/>
    <rect id="Retângulo_91" data-name="Retângulo 91" width="8.853" height="8.853" transform="translate(225.426 74.658)" fill="#6c63ff" opacity="0.4"/>
    <rect id="Retângulo_92" data-name="Retângulo 92" width="8.853" height="8.853" transform="translate(237.932 74.658)" fill="#6c63ff" opacity="0.4"/>
    <rect id="Retângulo_93" data-name="Retângulo 93" width="8.853" height="8.853" transform="translate(250.438 74.658)" fill="#6c63ff" opacity="0.2"/>
    <rect id="Retângulo_94" data-name="Retângulo 94" width="8.853" height="8.853" transform="translate(262.941 74.658)" fill="#6c63ff" opacity="0.2"/>
    <rect id="Retângulo_95" data-name="Retângulo 95" width="8.853" height="8.853" transform="translate(275.447 74.658)" fill="#6c63ff" opacity="0.2"/>
    <rect id="Retângulo_96" data-name="Retângulo 96" width="8.853" height="8.853" transform="translate(287.949 74.658)" fill="#6c63ff" opacity="0.2"/>
    <rect id="Retângulo_97" data-name="Retângulo 97" width="8.853" height="8.853" transform="translate(300.455 74.658)" fill="#6c63ff" opacity="0.7"/>
    <rect id="Retângulo_98" data-name="Retângulo 98" width="8.853" height="8.853" transform="translate(312.961 74.658)" fill="#6c63ff" opacity="0.7"/>
    <rect id="Retângulo_99" data-name="Retângulo 99" width="8.853" height="8.853" transform="translate(325.464 74.658)" fill="#6c63ff" opacity="0.4"/>
    <rect id="Retângulo_100" data-name="Retângulo 100" width="8.853" height="8.853" transform="translate(340.016 74.658)" fill="#6c63ff" opacity="0.2"/>
    <rect id="Retângulo_101" data-name="Retângulo 101" width="8.853" height="8.853" transform="translate(352.114 74.658)" fill="#6c63ff"/>
    <rect id="Retângulo_102" data-name="Retângulo 102" width="8.853" height="8.853" transform="translate(36.629 86.257)" fill="#6c63ff" opacity="0.2"/>
    <rect id="Retângulo_103" data-name="Retângulo 103" width="8.853" height="8.853" transform="translate(48.731 86.257)" fill="#6c63ff" opacity="0.2"/>
    <rect id="Retângulo_104" data-name="Retângulo 104" width="8.853" height="8.853" transform="translate(60.828 86.257)" fill="#6c63ff" opacity="0.4"/>
    <rect id="Retângulo_105" data-name="Retângulo 105" width="8.853" height="8.853" transform="translate(75.37 86.257)" fill="#6c63ff" opacity="0.2"/>
    <rect id="Retângulo_106" data-name="Retângulo 106" width="8.853" height="8.853" transform="translate(87.876 86.257)" fill="#6c63ff" opacity="0.2"/>
    <rect id="Retângulo_107" data-name="Retângulo 107" width="8.853" height="8.853" transform="translate(100.379 86.257)" fill="#6c63ff" opacity="0.7"/>
    <rect id="Retângulo_108" data-name="Retângulo 108" width="8.853" height="8.853" transform="translate(112.885 86.257)" fill="#6c63ff" opacity="0.7"/>
    <rect id="Retângulo_109" data-name="Retângulo 109" width="8.853" height="8.853" transform="translate(125.387 86.257)" fill="#6c63ff" opacity="0.2"/>
    <rect id="Retângulo_110" data-name="Retângulo 110" width="8.853" height="8.853" transform="translate(137.894 86.257)" fill="#6c63ff" opacity="0.2"/>
    <rect id="Retângulo_111" data-name="Retângulo 111" width="8.853" height="8.853" transform="translate(150.4 86.257)" fill="#6c63ff" opacity="0.4"/>
    <rect id="Retângulo_112" data-name="Retângulo 112" width="8.853" height="8.853" transform="translate(162.902 86.257)" fill="#6c63ff"/>
    <rect id="Retângulo_113" data-name="Retângulo 113" width="8.853" height="8.853" transform="translate(175.408 86.257)" fill="#6c63ff" opacity="0.2"/>
    <rect id="Retângulo_114" data-name="Retângulo 114" width="8.853" height="8.853" transform="translate(187.911 86.257)" fill="#6c63ff"/>
    <rect id="Retângulo_115" data-name="Retângulo 115" width="8.853" height="8.853" transform="translate(200.417 86.257)" fill="#6c63ff"/>
    <rect id="Retângulo_116" data-name="Retângulo 116" width="8.853" height="8.853" transform="translate(212.923 86.257)" fill="#6c63ff"/>
    <rect id="Retângulo_117" data-name="Retângulo 117" width="8.853" height="8.853" transform="translate(225.426 86.257)" fill="#6c63ff" opacity="0.2"/>
    <rect id="Retângulo_118" data-name="Retângulo 118" width="8.853" height="8.853" transform="translate(237.932 86.257)" fill="#6c63ff"/>
    <rect id="Retângulo_119" data-name="Retângulo 119" width="8.853" height="8.853" transform="translate(250.438 86.257)" fill="#6c63ff" opacity="0.2"/>
    <rect id="Retângulo_120" data-name="Retângulo 120" width="8.853" height="8.853" transform="translate(262.941 86.257)" fill="#6c63ff" opacity="0.2"/>
    <rect id="Retângulo_121" data-name="Retângulo 121" width="8.853" height="8.853" transform="translate(275.447 86.257)" fill="#6c63ff" opacity="0.2"/>
    <rect id="Retângulo_122" data-name="Retângulo 122" width="8.853" height="8.853" transform="translate(287.949 86.257)" fill="#6c63ff" opacity="0.2"/>
    <rect id="Retângulo_123" data-name="Retângulo 123" width="8.853" height="8.853" transform="translate(300.455 86.257)" fill="#6c63ff" opacity="0.2"/>
    <rect id="Retângulo_124" data-name="Retângulo 124" width="8.853" height="8.853" transform="translate(312.961 86.257)" fill="#6c63ff" opacity="0.7"/>
    <rect id="Retângulo_125" data-name="Retângulo 125" width="8.853" height="8.853" transform="translate(325.464 86.257)" fill="#6c63ff" opacity="0.2"/>
    <rect id="Retângulo_126" data-name="Retângulo 126" width="8.853" height="8.853" transform="translate(340.016 86.257)" fill="#6c63ff" opacity="0.2"/>
    <rect id="Retângulo_127" data-name="Retângulo 127" width="8.853" height="8.853" transform="translate(352.114 86.257)" fill="#6c63ff"/>
    <rect id="Retângulo_128" data-name="Retângulo 128" width="8.853" height="8.853" transform="translate(36.629 97.853)" fill="#6c63ff" opacity="0.2"/>
    <rect id="Retângulo_129" data-name="Retângulo 129" width="8.853" height="8.853" transform="translate(48.731 97.853)" fill="#6c63ff" opacity="0.2"/>
    <rect id="Retângulo_130" data-name="Retângulo 130" width="8.853" height="8.853" transform="translate(60.828 97.853)" fill="#6c63ff" opacity="0.2"/>
    <rect id="Retângulo_131" data-name="Retângulo 131" width="8.853" height="8.853" transform="translate(75.37 97.853)" fill="#6c63ff" opacity="0.4"/>
    <rect id="Retângulo_132" data-name="Retângulo 132" width="8.853" height="8.853" transform="translate(87.876 97.853)" fill="#6c63ff" opacity="0.2"/>
    <rect id="Retângulo_133" data-name="Retângulo 133" width="8.853" height="8.853" transform="translate(100.379 97.853)" fill="#6c63ff" opacity="0.2"/>
    <rect id="Retângulo_134" data-name="Retângulo 134" width="8.853" height="8.853" transform="translate(112.885 97.853)" fill="#6c63ff" opacity="0.7"/>
    <rect id="Retângulo_135" data-name="Retângulo 135" width="8.853" height="8.853" transform="translate(125.387 97.853)" fill="#6c63ff" opacity="0.2"/>
    <rect id="Retângulo_136" data-name="Retângulo 136" width="8.853" height="8.853" transform="translate(137.894 97.853)" fill="#6c63ff" opacity="0.2"/>
    <rect id="Retângulo_137" data-name="Retângulo 137" width="8.853" height="8.853" transform="translate(150.4 97.853)" fill="#6c63ff" opacity="0.2"/>
    <rect id="Retângulo_138" data-name="Retângulo 138" width="8.853" height="8.853" transform="translate(162.902 97.853)" fill="#6c63ff"/>
    <rect id="Retângulo_139" data-name="Retângulo 139" width="8.853" height="8.853" transform="translate(175.408 97.853)" fill="#6c63ff" opacity="0.2"/>
    <rect id="Retângulo_140" data-name="Retângulo 140" width="8.853" height="8.853" transform="translate(187.911 97.853)" fill="#6c63ff"/>
    <rect id="Retângulo_141" data-name="Retângulo 141" width="8.853" height="8.853" transform="translate(200.417 97.853)" fill="#6c63ff"/>
    <rect id="Retângulo_142" data-name="Retângulo 142" width="8.853" height="8.853" transform="translate(212.923 97.853)" fill="#6c63ff" opacity="0.2"/>
    <rect id="Retângulo_143" data-name="Retângulo 143" width="8.853" height="8.853" transform="translate(225.426 97.853)" fill="#6c63ff" opacity="0.2"/>
    <rect id="Retângulo_144" data-name="Retângulo 144" width="8.853" height="8.853" transform="translate(237.932 97.853)" fill="#6c63ff" opacity="0.2"/>
    <rect id="Retângulo_145" data-name="Retângulo 145" width="8.853" height="8.853" transform="translate(250.438 97.853)" fill="#6c63ff" opacity="0.2"/>
    <rect id="Retângulo_146" data-name="Retângulo 146" width="8.853" height="8.853" transform="translate(262.941 97.853)" fill="#6c63ff" opacity="0.2"/>
    <rect id="Retângulo_147" data-name="Retângulo 147" width="8.853" height="8.853" transform="translate(275.447 97.853)" fill="#6c63ff" opacity="0.2"/>
    <rect id="Retângulo_148" data-name="Retângulo 148" width="8.853" height="8.853" transform="translate(287.949 97.853)" fill="#6c63ff" opacity="0.2"/>
    <rect id="Retângulo_149" data-name="Retângulo 149" width="8.853" height="8.853" transform="translate(300.455 97.853)" fill="#6c63ff" opacity="0.2"/>
    <rect id="Retângulo_150" data-name="Retângulo 150" width="8.853" height="8.853" transform="translate(312.961 97.853)" fill="#6c63ff" opacity="0.2"/>
    <rect id="Retângulo_151" data-name="Retângulo 151" width="8.853" height="8.853" transform="translate(325.464 97.853)" fill="#6c63ff" opacity="0.2"/>
    <rect id="Retângulo_152" data-name="Retângulo 152" width="8.853" height="8.853" transform="translate(340.016 97.853)" fill="#6c63ff" opacity="0.4"/>
    <rect id="Retângulo_153" data-name="Retângulo 153" width="8.853" height="8.853" transform="translate(352.114 97.853)" fill="#6c63ff"/>
    <rect id="Retângulo_154" data-name="Retângulo 154" width="8.853" height="8.853" transform="translate(36.629 109.452)" fill="#6c63ff" opacity="0.7"/>
    <rect id="Retângulo_155" data-name="Retângulo 155" width="8.853" height="8.853" transform="translate(48.731 109.452)" fill="#6c63ff" opacity="0.7"/>
    <rect id="Retângulo_156" data-name="Retângulo 156" width="8.853" height="8.853" transform="translate(60.828 109.452)" fill="#6c63ff" opacity="0.7"/>
    <rect id="Retângulo_157" data-name="Retângulo 157" width="8.853" height="8.853" transform="translate(75.37 109.452)" fill="#6c63ff" opacity="0.7"/>
    <rect id="Retângulo_158" data-name="Retângulo 158" width="8.853" height="8.853" transform="translate(87.876 109.452)" fill="#6c63ff" opacity="0.7"/>
    <rect id="Retângulo_159" data-name="Retângulo 159" width="8.853" height="8.853" transform="translate(100.379 109.452)" fill="#6c63ff" opacity="0.2"/>
    <rect id="Retângulo_160" data-name="Retângulo 160" width="8.853" height="8.853" transform="translate(112.885 109.452)" fill="#6c63ff" opacity="0.2"/>
    <rect id="Retângulo_161" data-name="Retângulo 161" width="8.853" height="8.853" transform="translate(125.387 109.452)" fill="#6c63ff" opacity="0.2"/>
    <rect id="Retângulo_162" data-name="Retângulo 162" width="8.853" height="8.853" transform="translate(137.894 109.452)" fill="#6c63ff" opacity="0.2"/>
    <rect id="Retângulo_163" data-name="Retângulo 163" width="8.853" height="8.853" transform="translate(150.4 109.452)" fill="#6c63ff" opacity="0.2"/>
    <rect id="Retângulo_164" data-name="Retângulo 164" width="8.853" height="8.853" transform="translate(162.902 109.452)" fill="#6c63ff" opacity="0.2"/>
    <rect id="Retângulo_165" data-name="Retângulo 165" width="8.853" height="8.853" transform="translate(175.408 109.452)" fill="#6c63ff"/>
    <rect id="Retângulo_166" data-name="Retângulo 166" width="8.853" height="8.853" transform="translate(187.911 109.452)" fill="#6c63ff" opacity="0.2"/>
    <rect id="Retângulo_167" data-name="Retângulo 167" width="8.853" height="8.853" transform="translate(200.417 109.452)" fill="#6c63ff" opacity="0.2"/>
    <rect id="Retângulo_168" data-name="Retângulo 168" width="8.853" height="8.853" transform="translate(212.923 109.452)" fill="#6c63ff" opacity="0.2"/>
    <rect id="Retângulo_169" data-name="Retângulo 169" width="8.853" height="8.853" transform="translate(225.426 109.452)" fill="#6c63ff"/>
    <rect id="Retângulo_170" data-name="Retângulo 170" width="8.853" height="8.853" transform="translate(237.932 109.452)" fill="#6c63ff" opacity="0.2"/>
    <rect id="Retângulo_171" data-name="Retângulo 171" width="8.853" height="8.853" transform="translate(250.438 109.452)" fill="#6c63ff" opacity="0.2"/>
    <rect id="Retângulo_172" data-name="Retângulo 172" width="8.853" height="8.853" transform="translate(262.941 109.452)" fill="#6c63ff" opacity="0.2"/>
    <rect id="Retângulo_173" data-name="Retângulo 173" width="8.853" height="8.853" transform="translate(275.447 109.452)" fill="#6c63ff" opacity="0.2"/>
    <rect id="Retângulo_174" data-name="Retângulo 174" width="8.853" height="8.853" transform="translate(287.949 109.452)" fill="#6c63ff" opacity="0.2"/>
    <rect id="Retângulo_175" data-name="Retângulo 175" width="8.853" height="8.853" transform="translate(300.455 109.452)" fill="#6c63ff" opacity="0.2"/>
    <rect id="Retângulo_176" data-name="Retângulo 176" width="8.853" height="8.853" transform="translate(312.961 109.452)" fill="#6c63ff" opacity="0.2"/>
    <rect id="Retângulo_177" data-name="Retângulo 177" width="8.853" height="8.853" transform="translate(325.464 109.452)" fill="#6c63ff" opacity="0.2"/>
    <rect id="Retângulo_178" data-name="Retângulo 178" width="8.853" height="8.853" transform="translate(340.016 109.452)" fill="#6c63ff" opacity="0.2"/>
    <rect id="Retângulo_179" data-name="Retângulo 179" width="8.853" height="8.853" transform="translate(352.114 109.452)" fill="#6c63ff"/>
    <circle id="Elipse_2" data-name="Elipse 2" cx="12.101" cy="12.101" r="12.101" transform="translate(251.264 118.419)" fill="#767d9f"/>
    <path id="Caminho_40" data-name="Caminho 40" d="M760.127,443.436q1.812,7.905,3.075,15.929a9.279,9.279,0,0,1-.1,4.768,16.484,16.484,0,0,1-2.235,3.328,4.23,4.23,0,0,0-.885,3.758,4.356,4.356,0,0,0,3.141,2.3c3.734,1.006,7.715.274,11.431-.816a18.5,18.5,0,0,0,4.793-1.985A17.935,17.935,0,0,0,783.4,466.9c5.417-6.569,8.964-14.454,12.3-22.29a13.576,13.576,0,0,1-11.49-4.629c-1.367-1.607-2.37-3.845-1.6-5.809-2.259,1.239-4.942,1.322-7.375,2.169a26.2,26.2,0,0,0-4.338,2.134q-2.492,1.44-4.956,2.936C764.069,442.541,762.31,443.547,760.127,443.436Z" transform="translate(-496.714 -328.438)" fill="#ae6e79"/>
    <path id="Caminho_41" data-name="Caminho 41" d="M735.506,466.035c-2.12,4.126-4.879,8.093-8.818,10.55s-9.242,3.123-13.187.694c-1.943-1.187-3.415-2.991-5.112-4.512s-3.817-2.821-6.1-2.624c-2.513.219-4.48,2.179-6.163,4.057a48.2,48.2,0,0,0-6.83,9.2c-3.47,6.49-4.293,14.076-4.14,21.433s1.218,14.676,1.242,22.033c.035,9.051-1.5,18.029-3.05,26.944,14.263-1.756,28.544,2.082,42.838,3.536a262.625,262.625,0,0,0,27.562.9,8.345,8.345,0,0,0,4.685-.937,6.315,6.315,0,0,0,1.94-2.3,22.049,22.049,0,0,0,2.134-7.656,155.012,155.012,0,0,0,.951-20.156c.062-16.311.121-32.68-1.95-48.863a46.058,46.058,0,0,0-2.69-11.706,18.363,18.363,0,0,0-7.5-9.144c-2.238-1.284-7.427-3.519-10.064-2.224C738.293,456.7,736.926,463.273,735.506,466.035Z" transform="translate(-446.597 -339.025)" fill="#767d9f"/>
    <path id="Caminho_42" data-name="Caminho 42" d="M830.985,506.724c-.538-10.064-2.728-20.8,1.933-29.738,1.145-2.193-2.964-4.931-1.693-7.055a31.955,31.955,0,0,0,3.491-8.3,6.263,6.263,0,0,0,.226-3.071c-.462-1.836-2.277-2.929-3.817-4.046-1.7-1.235-2.575-5-3.123-7.038s4.362.416,6.337-.309c2.742-1,6.226-.371,8.96.646a14.96,14.96,0,0,0,4.813.652,63.417,63.417,0,0,0,9.471-.226,23.566,23.566,0,0,1,4.237-.364c3.613.2,6.753,2.676,8.891,5.6s3.5,6.326,5.251,9.491c1.461,2.637,3.2,5.129,4.449,7.874a48.477,48.477,0,0,1,2.492,7.635l1.78,6.66a8.881,8.881,0,0,1,.437,2.953,8.385,8.385,0,0,1-1.041,3.005,56.959,56.959,0,0,1-6.479,9.887c-3.745,4.591-8.291,8.731-10.515,14.229a35.934,35.934,0,0,0-1.791,6.687,245.655,245.655,0,0,0-3.783,27.468,60.454,60.454,0,0,0-12.674-4.237,61.623,61.623,0,0,0-6.594-1.041c-1.94-.2-4.442.18-6.288-.347-3.089-.878-3.429-6.1-3.9-8.836a80.676,80.676,0,0,1-.927-13.187C831.1,516.705,831.252,511.711,830.985,506.724Z" transform="translate(-539.732 -333.656)" fill="#4c4981"/>
    <path id="Caminho_43" data-name="Caminho 43" d="M584.851,556.725c1.461,8.329,3.071,16.682,6.247,24.508-.08.076-.16.146-.24.215-.281.24-.573.465-.878.694a11.69,11.69,0,0,0-2.082,1.576,2.779,2.779,0,0,0-.521.85,1.9,1.9,0,0,0,0,1.551c-1.655.732-3.578.507-5.435.437a7.13,7.13,0,0,0-4.435.878c-1.784,1.228-2.322,3.588-2.61,5.733q-.16,1.173-.274,2.349-.111,1.093-.18,2.193a65.471,65.471,0,0,0-.066,7.288q.028.666.073,1.333c-5.671-.135-10.838-3.092-15.728-5.966a8.677,8.677,0,0,1-2.995-2.429,5.483,5.483,0,0,1-.8-3.571,3.936,3.936,0,0,1,.055-.528,14.431,14.431,0,0,1,.795-3.012,37.2,37.2,0,0,1,6.66-11.331c1.242-1.451,2.641-2.87,3.22-4.692.253-.795.347-1.638.6-2.429,1.152-3.429,5.31-5.049,6.733-8.377a25.42,25.42,0,0,1,.937-2.429,6.117,6.117,0,0,1,1.475-1.648c.253-.212.517-.417.777-.621q3.658-2.867,7.048-6.056.632-.593,1.249-1.2a20.651,20.651,0,0,0,.371,4.685Z" transform="translate(-365.456 -402.476)" fill="#4c4981"/>
    <path id="Caminho_44" data-name="Caminho 44" d="M675.535,480.332c-.5.528-1.041,1.024-1.572,1.517l-.142.128-.562.521a13.536,13.536,0,0,0-2.62,3.05l-.059.1c-1.77,3.168-1.114,7.069-.621,10.668a90.764,90.764,0,0,1,.822,13.534c-.09,6.247-.826,12.452-.84,18.691q0,2.124.094,4.244c.1,2.3.274,4.6.482,6.9.226,2.519.5,5.035.75,7.552.2,1.947.392,3.89.552,5.834.08,1.006.156,2.009.219,3.016.073,1.18.132,2.363.167,3.543h0c.024.75.038,1.5.038,2.245v1.274q0,1.218-.066,2.429-.069,1.558-.212,3.123a5.064,5.064,0,0,1-1.1,3.172c-.049.049-.1.094-.153.139l-1.124-.139a115.465,115.465,0,0,0-23.356-.417c.17-1.173.326-2.342.479-3.519.069-.555.139-1.114.2-1.673q.114-.958.219-1.916.12-1.041.222-2.082.271-2.683.475-5.369.3-3.918.458-7.85.076-1.877.118-3.758.059-2.332.055-4.668,0-2.27-.038-4.546c0-.5-.021-1-.062-1.5a9.485,9.485,0,0,0-.184-1.329,17.317,17.317,0,0,0-1.041-2.943c-.076-.181-.149-.347-.222-.538-.042-.094-.08-.191-.118-.285a25.958,25.958,0,0,0,4.789-6.51c2.218-3.779,4.487-7.725,4.859-12.091s-1.8-9.269-5.969-10.6a29,29,0,0,0-3.505-.649,15.4,15.4,0,0,1-4.682-1.426q-1.041,1.069-2.082,2.1a7.688,7.688,0,0,1,.753-3.023l.493.024a.94.94,0,0,1-.055-.347,1.823,1.823,0,0,1,.805-1.256c1.635-1.388,4.206-1.7,5.237-3.575a26.106,26.106,0,0,0,.85-2.53c1-2.336,3.856-3.2,5.577-5.063s2.152-4.511,3.543-6.594a9.933,9.933,0,0,1,4.164-3.47c.139-.066.281-.132.423-.191a24.03,24.03,0,0,1,9.287-1.506,19.582,19.582,0,0,1,5.636.621,1.845,1.845,0,0,1,.642.392C679.134,475.49,676.694,479.1,675.535,480.332Z" transform="translate(-420.067 -350.716)" fill="#4c4981"/>
    <path id="Caminho_45" data-name="Caminho 45" d="M630.5,541a21.127,21.127,0,0,1,16.221,1.69,15.342,15.342,0,0,1,6.115,5.823c2.065,3.748,1.975,8.266,1.829,12.545a15.307,15.307,0,0,1-1.11,6.281,12.775,12.775,0,0,1-5.258,5,14.661,14.661,0,0,1-4.275,1.85,18.341,18.341,0,0,1-7.1-.347c-2.554-.472-5.3-1.041-7.069-2.943a12.073,12.073,0,0,1-2.172-3.939q-1.211-3.037-2.429-6.066c-1.405-3.509-1.881-6.427-.024-9.845.843-1.558,1.874-3.016,2.707-4.584C628.341,545.67,629.833,541.207,630.5,541Z" transform="translate(-409.831 -396.302)" fill="#4c4981"/>
    <path id="Caminho_46" data-name="Caminho 46" d="M471.365,677.074v10.376a62.534,62.534,0,0,1-23.372,4.442H350.618c-.051.049-.1.094-.159.139l-1.17-.139H176.076A77.778,77.778,0,0,1,137.03,681.7V665.862l83.3-9.242h.065l48.513,3.949,12.554,1.041,6.521.531,13.5,1.1,6.943.566,10.11.826,1.423.115,7.286.593,9.886.781,13.9,1.131,23.173,1.891,16.3,1.329,26.769,2.183,5.091.413.549.045.477.038,6.723.548,7.38.6.856.069Z" transform="translate(-99.193 -470.763)" fill="#504f60"/>
    <path id="Caminho_47" data-name="Caminho 47" d="M567.882,540.9,467.54,523.77l-3.89,19.674,46,5.507,14.163,1.773,38.958-7.673Z" transform="translate(-295.608 -334.967)" fill="#9c9ca1"/>
    <path id="Caminho_48" data-name="Caminho 48" d="M642.33,722.1l50.272-9.45a1.735,1.735,0,0,1,2.061,1.711h0a1.735,1.735,0,0,1-1.419,1.711l-49.1,9.193Z" transform="translate(-421.101 -507.33)" fill="#9c9ca1"/>
    <path id="Caminho_49" data-name="Caminho 49" d="M631.555,641.665a12.966,12.966,0,0,0,4.56-1.086c1.735-.864,3.085-2.353,4.692-3.45a13.975,13.975,0,0,1,12.309-1.36,19.829,19.829,0,0,1,9.8,7.951c1.572,2.377,2.752,5.41,1.642,8.034a10.59,10.59,0,0,1-1.43,2.235l-2.894,3.783a10.063,10.063,0,0,1-1.964,2.113,8.345,8.345,0,0,1-3.755,1.3c-3.522.514-7.107.222-10.657.458-6.1.406-12.053,2.37-18.164,2.3a54.741,54.741,0,0,1-10.411-1.454l-15.19-3.123c-2.644-.541-5.632-1.333-6.878-3.731a8.65,8.65,0,0,1-.729-3.543c-.18-3.345,0-7.066,2.318-9.478,2.179-2.263,5.625-2.978,8.228-4.65,3.186-2.051,4.237-1.388,7.6.153a41.645,41.645,0,0,0,20.93,3.54Z" transform="translate(-388.71 -456.61)" fill="#ae6e79"/>
    <path id="Caminho_50" data-name="Caminho 50" d="M631.555,641.665a12.966,12.966,0,0,0,4.56-1.086c1.735-.864,3.085-2.353,4.692-3.45a13.975,13.975,0,0,1,12.309-1.36,19.829,19.829,0,0,1,9.8,7.951c1.572,2.377,2.752,5.41,1.642,8.034a10.59,10.59,0,0,1-1.43,2.235l-2.894,3.783a10.063,10.063,0,0,1-1.964,2.113,8.345,8.345,0,0,1-3.755,1.3c-3.522.514-7.107.222-10.657.458-6.1.406-12.053,2.37-18.164,2.3a54.741,54.741,0,0,1-10.411-1.454l-15.19-3.123c-2.644-.541-5.632-1.333-6.878-3.731a8.65,8.65,0,0,1-.729-3.543c-.18-3.345,0-7.066,2.318-9.478,2.179-2.263,5.625-2.978,8.228-4.65,3.186-2.051,4.237-1.388,7.6.153a41.645,41.645,0,0,0,20.93,3.54Z" transform="translate(-388.71 -456.61)" opacity="0.05"/>
    <path id="Caminho_51" data-name="Caminho 51" d="M711.865,637.258a90.011,90.011,0,0,1-13.01,4.286c-7.482,1.648-15.311,1.388-22.734,3.273-3.922,1-7.819,2.61-11.848,2.284a35.5,35.5,0,0,1-5.292-1.111c-9.845-2.429-21.037-1.641-29.033,4.605a36.132,36.132,0,0,0-7,7.635,5.1,5.1,0,0,0,2.051,7.593,30.061,30.061,0,0,0,9.849,2.627c4.557.4,9.134-.243,13.666-.888,6.726-.954,13.455-1.912,20.163-2.984,2.408-.385,4.817-.784,7.239-1.09,17.432-2.2,35.179.475,52.656-1.364a16.087,16.087,0,0,0,5.171-1.183c4.067-1.909,6.08-6.941,5.24-11.362s-4.081-8.1-7.982-10.352c-3.269-1.9-6.795-2.665-10.435-3.47C717.181,634.968,715.12,636.009,711.865,637.258Z" transform="translate(-406.295 -456.961)" fill="#ae6e79"/>
    <path id="Caminho_52" data-name="Caminho 52" d="M903.133,536.593c1.923,2.52,2.332,5.9,2.124,9.054s-.958,6.274-1.069,9.443c-.153,4.345.9,8.676.718,13.007a37.417,37.417,0,0,1-1.694,8.908c-1,3.432-2.454,7.121-5.622,8.77-4.206,2.19-13.028.958-17.452,2.672.4-2.509,4.262-6.143,4.664-8.652a16.154,16.154,0,0,0,.26-5.258,11.628,11.628,0,0,0-3.227-5.823,17.03,17.03,0,0,0-9.186-5.206c-3.522-.639-12.146-.115-14.964,2.11-.347-2.3,6.108-4.511,8.377-5.008,1.131-.253,2.429-.111,3.335-.829,1.735-1.36.476-4.071.559-6.247.066-1.735,1.079-3.325,1.284-5.06.347-2.776-1.464-5.6-.753-8.329a21.613,21.613,0,0,1,1.256-2.849c1.235-2.932.694-6.278.035-9.394-.409-1.957-.809-4.164.281-5.834,1.01-1.558,3.876,3.991,5.712,3.734,6.063-.85,11.549-5.344,16.446-1.666,2.5,1.874,2.821,3.817,3.817,6.493C899,533.179,901.512,534.483,903.133,536.593Z" transform="translate(-559.04 -382.726)" opacity="0.1"/>
    <path id="Caminho_53" data-name="Caminho 53" d="M906.133,532.179c1.923,2.52,2.332,5.9,2.124,9.054s-.958,6.274-1.069,9.443c-.153,4.345.9,8.676.718,13.007a37.414,37.414,0,0,1-1.694,8.908c-1,3.432-2.454,7.121-5.622,8.77-4.206,2.19-13.028.958-17.452,2.672.4-2.509,4.262-6.143,4.664-8.652a16.154,16.154,0,0,0,.26-5.258,11.628,11.628,0,0,0-3.227-5.823,17.031,17.031,0,0,0-9.186-5.206c-3.522-.639-12.146-.115-14.964,2.11-.347-2.3,6.108-4.511,8.377-5.008,1.131-.253,2.429-.111,3.335-.829,1.735-1.36.475-4.071.559-6.247.066-1.735,1.079-3.325,1.284-5.06.347-2.776-1.464-5.6-.753-8.329a21.613,21.613,0,0,1,1.256-2.849c1.235-2.932.694-6.278.035-9.394-.41-1.957-.809-4.164.281-5.834,1.01-1.558,2.984-2.148,4.82-2.408a23.744,23.744,0,0,1,17.352,4.477c2.5,1.874,2.821,3.817,3.817,6.493C902,528.764,904.512,530.069,906.133,532.179Z" transform="translate(-560.96 -378.312)" fill="#4c4981"/>
    <path id="Caminho_54" data-name="Caminho 54" d="M329.714,495.025l18.868,69.734a4.355,4.355,0,0,0,3.786,3.2l84.927,8.159a4.352,4.352,0,0,0,4.643-5.372l-20.663-84.115a4.352,4.352,0,0,0-4.553-3.3l-83.146,6.219a4.352,4.352,0,0,0-3.863,5.48Z" transform="translate(-220.131 -357.601)" fill="#9c9ca1"/>
    <ellipse id="Elipse_3" data-name="Elipse 3" cx="9.335" cy="9.457" rx="9.335" ry="9.457" transform="translate(272.878 129.597)" fill="#fff"/>
    <path id="Caminho_55" data-name="Caminho 55" d="M828.581,479.029s1.968,5.851-3.838,8.312l-.743,1.3,3.637,3.588s4.484-8.18,4-11.084C831.635,481.142,830.941,478.193,828.581,479.029Z" transform="translate(-538.543 -357.628)" fill="#fff"/>
    <circle id="Elipse_4" data-name="Elipse 4" cx="9.002" cy="9.002" r="9.002" transform="translate(274.316 130.518)" fill="#6c63ff"/>
    <path id="Caminho_56" data-name="Caminho 56" d="M824.621,455.178l-1.43-2.36-2.082-.295c.444-7.77-1.572-10.085-1.572-10.085l-.469-.045-2.041-.2-3.838-3.984V437.08c5.393.642,8.374,3.2,9.984,6.2C826.02,448.553,824.621,455.178,824.621,455.178Z" transform="translate(-531.513 -330.754)" fill="#6c63ff"/>
    <path id="Caminho_57" data-name="Caminho 57" d="M819.119,443.092v1.43l-2.041-.2-3.838-3.984S819.178,441.669,819.119,443.092Z" transform="translate(-531.683 -333.088)" stroke="#4c4981" stroke-miterlimit="10" stroke-width="1" opacity="0.1"/>
    <path id="Caminho_58" data-name="Caminho 58" d="M843.44,466.879l-1.43-2.36V455C844.838,460.254,843.44,466.879,843.44,466.879Z" transform="translate(-550.235 -342.352)" stroke="#4c4981" stroke-miterlimit="10" stroke-width="1" opacity="0.1"/>
    <ellipse id="Elipse_5" data-name="Elipse 5" cx="5.008" cy="9.134" rx="5.008" ry="9.134" transform="translate(252.486 129.767) rotate(-30)" fill="#fff"/>
    <path id="Caminho_59" data-name="Caminho 59" d="M742.621,502.656c2.523,4.369,5.618,7.288,3.224,8.676s-9.37.694-11.893-3.679-.232-10.411,2.162-11.8S740.095,498.276,742.621,502.656Z" transform="translate(-479.951 -368.254)" fill="#6c63ff"/>
    <path id="Caminho_60" data-name="Caminho 60" d="M733.917,381.747c0,13.961-9.554,27.416-23.515,27.416a25.282,25.282,0,0,1,0-50.563C724.363,358.614,733.917,367.783,733.917,381.747Z" transform="translate(-448.569 -279.948)" opacity="0.1"/>
    <circle id="Elipse_6" data-name="Elipse 6" cx="25.282" cy="25.282" r="25.282" transform="translate(236.595 77.942)" fill="#ae6e79"/>
    <path id="Caminho_61" data-name="Caminho 61" d="M688.3,335.238c3.009,1.107,4.789,4.216,7.489,5.948,3.817,2.429,8.787,1.8,13.146.6,2.429-.663,4.97-1.471,7.361-.736a2.083,2.083,0,0,0,1.121.16c.52-.149.777-.725.947-1.239,2.957-8.815,1.628-18.8-2.835-26.954a17.423,17.423,0,0,0-4.435-5.6,18.5,18.5,0,0,0-5.039-2.544,50.318,50.318,0,0,0-10.022-2.474,6.225,6.225,0,0,0-1.829-.059,7.657,7.657,0,0,0-2.332.989,23.869,23.869,0,0,1-10.362,2.814c-4.859.184-10.411-.961-14.156,2.155-4.511,3.738-3.387,11.029-6.313,16.1-1.936,3.356-5.671,5.792-6.285,9.613a8.876,8.876,0,0,0,.219,3.495,14.22,14.22,0,0,0,13.187,10.539,5,5,0,0,0,2.693-.552,6.093,6.093,0,0,0,1.419-1.35C676.248,341.443,680.794,332.475,688.3,335.238Z" transform="translate(-428.679 -244.092)" fill="#444053"/>
    <path id="Caminho_62" data-name="Caminho 62" d="M718.344,387.2c-.17.514-.427,1.09-.947,1.239a2.082,2.082,0,0,1-1.121-.16c-2.391-.736-4.945.073-7.357.736-4.362,1.2-9.342,1.843-13.146-.6-2.7-1.735-4.48-4.859-7.493-5.948-7.506-2.776-12.053,6.2-16.037,10.911a6.091,6.091,0,0,1-1.419,1.35,5,5,0,0,1-2.693.552,14.257,14.257,0,0,1-13.187-10.539c-.08-.347-.149-.694-.2-1.041a.168.168,0,0,1-.017.09,8.873,8.873,0,0,0,.219,3.495,14.224,14.224,0,0,0,13.187,10.539,5,5,0,0,0,2.693-.552,6.09,6.09,0,0,0,1.419-1.35c3.984-4.706,8.53-13.673,16.037-10.911,3.012,1.107,4.789,4.216,7.493,5.948,3.817,2.429,8.784,1.8,13.146.6,2.429-.663,4.966-1.471,7.357-.736a2.083,2.083,0,0,0,1.121.16c.521-.149.777-.725.947-1.239a31.333,31.333,0,0,0,1.555-11.2A30.816,30.816,0,0,1,718.344,387.2Z" transform="translate(-428.66 -293.244)" opacity="0.1"/>
  </g>
</svg>
